<?xml version="1.0" encoding="utf-8"?>
<svg version="1.1" xmlns:xlink="http://www.w3.org/1999/xlink" width="42px" height="40px" xmlns="http://www.w3.org/2000/svg">
  <g transform="matrix(1 0 0 1 -661 -161 )">
    <path d="M 682 161  C 693.76 161  703 169.8  703 181  C 703 192.2  693.76 201  682 201  C 670.24 201  661 192.2  661 181  C 661 169.8  670.24 161  682 161  Z " fill-rule="nonzero" fill="#ffffff" stroke="none" />
    <path d="M 682 161.5  C 693.48 161.5  702.5 170.08  702.5 181  C 702.5 191.92  693.48 200.5  682 200.5  C 670.52 200.5  661.5 191.92  661.5 181  C 661.5 170.08  670.52 161.5  682 161.5  Z " stroke-width="1" stroke="#797979" fill="none" />
  </g>
</svg>